<svg width="64" height="64" viewBox="0 0 1064 1064" fill="none" xmlns="http://www.w3.org/2000/svg">
<rect x="38" width="38" height="38" fill="#101010"/>
<rect x="76" width="38" height="38" fill="#101010"/>
<rect x="114" width="38" height="38" fill="#101010"/>
<rect x="152" width="38" height="38" fill="#101010"/>
<rect x="190" width="38" height="38" fill="#101010"/>
<rect x="228" width="38" height="38" fill="#101010"/>
<rect x="266" width="38" height="38" fill="#101010"/>
<rect x="304" width="38" height="38" fill="#101010"/>
<rect x="342" width="38" height="38" fill="#101010"/>
<rect x="380" width="38" height="38" fill="#101010"/>
<rect x="418" width="38" height="38" fill="#101010"/>
<rect x="456" width="38" height="38" fill="#101010"/>
<rect x="494" width="38" height="38" fill="#101010"/>
<rect x="532" width="38" height="38" fill="#101010"/>
<rect x="570" width="38" height="38" fill="#101010"/>
<rect x="608" width="38" height="38" fill="#101010"/>
<rect x="646" width="38" height="38" fill="#101010"/>
<rect x="684" width="38" height="38" fill="#101010"/>
<rect x="722" width="38" height="38" fill="#101010"/>
<rect x="760" width="38" height="38" fill="#101010"/>
<rect x="798" width="38" height="38" fill="#101010"/>
<rect x="836" width="38" height="38" fill="#101010"/>
<rect x="874" width="38" height="38" fill="#101010"/>
<rect x="912" width="38" height="38" fill="#101010"/>
<rect x="950" width="38" height="38" fill="#101010"/>
<rect x="38" y="38" width="38" height="38" fill="#101010"/>
<rect x="76" y="38" width="38" height="38" fill="#101010"/>
<rect x="114" y="38" width="38" height="38" fill="#101010"/>
<rect x="152" y="38" width="38" height="38" fill="#101010"/>
<rect x="190" y="38" width="38" height="38" fill="#101010"/>
<rect x="228" y="38" width="38" height="38" fill="#101010"/>
<rect x="266" y="38" width="38" height="38" fill="#101010"/>
<rect x="304" y="38" width="38" height="38" fill="#101010"/>
<rect x="342" y="38" width="38" height="38" fill="#101010"/>
<rect x="380" y="38" width="38" height="38" fill="#101010"/>
<rect x="418" y="38" width="38" height="38" fill="#101010"/>
<rect x="456" y="38" width="38" height="38" fill="#101010"/>
<rect x="494" y="38" width="38" height="38" fill="#101010"/>
<rect x="532" y="38" width="38" height="38" fill="#101010"/>
<rect x="570" y="38" width="38" height="38" fill="#101010"/>
<rect x="608" y="38" width="38" height="38" fill="#101010"/>
<rect x="646" y="38" width="38" height="38" fill="#101010"/>
<rect x="684" y="38" width="38" height="38" fill="#101010"/>
<rect x="722" y="38" width="38" height="38" fill="#101010"/>
<rect x="760" y="38" width="38" height="38" fill="#101010"/>
<rect x="798" y="38" width="38" height="38" fill="#101010"/>
<rect x="836" y="38" width="38" height="38" fill="#101010"/>
<rect x="874" y="38" width="38" height="38" fill="#101010"/>
<rect x="912" y="38" width="38" height="38" fill="#101010"/>
<rect x="950" y="38" width="38" height="38" fill="#101010"/>
<rect y="76" width="38" height="38" fill="#101010"/>
<rect x="38" y="76" width="38" height="38" fill="#101010"/>
<rect x="76" y="76" width="38" height="38" fill="#101010"/>
<rect x="114" y="76" width="38" height="38" fill="#FF3F56"/>
<rect x="152" y="76" width="38" height="38" fill="#FF3F56"/>
<rect x="190" y="76" width="38" height="38" fill="#FF3F56"/>
<rect x="228" y="76" width="38" height="38" fill="#101010"/>
<rect x="266" y="76" width="38" height="38" fill="#FFC430"/>
<rect x="304" y="76" width="38" height="38" fill="#FFC430"/>
<rect x="342" y="76" width="38" height="38" fill="#FFC430"/>
<rect x="380" y="76" width="38" height="38" fill="#FFC430"/>
<rect x="418" y="76" width="38" height="38" fill="#101010"/>
<rect x="456" y="76" width="38" height="38" fill="#00DD45"/>
<rect x="494" y="76" width="38" height="38" fill="#00DD45"/>
<rect x="532" y="76" width="38" height="38" fill="#00DD45"/>
<rect x="570" y="76" width="38" height="38" fill="#101010"/>
<rect x="608" y="76" width="38" height="38" fill="#101010"/>
<rect x="646" y="76" width="38" height="38" fill="#D8D8D8"/>
<rect x="684" y="76" width="38" height="38" fill="#D8D8D8"/>
<rect x="722" y="76" width="38" height="38" fill="#D8D8D8"/>
<rect x="760" y="76" width="38" height="38" fill="#B8B1B7"/>
<rect x="798" y="76" width="38" height="38" fill="#B8B1B7"/>
<rect x="836" y="76" width="38" height="38" fill="#B8B1B7"/>
<rect x="874" y="76" width="38" height="38" fill="#B8B1B7"/>
<rect x="912" y="76" width="38" height="38" fill="#B8B1B7"/>
<rect x="950" y="76" width="38" height="38" fill="#B8B1B7"/>
<rect x="988" y="76" width="38" height="38" fill="#101010"/>
<rect x="1026" y="76" width="38" height="38" fill="#101010"/>
<rect y="114" width="38" height="38" fill="#101010"/>
<rect x="38" y="114" width="38" height="38" fill="#101010"/>
<rect x="76" y="114" width="38" height="38" fill="#101010"/>
<rect x="114" y="114" width="38" height="38" fill="#101010"/>
<rect x="152" y="114" width="38" height="38" fill="#101010"/>
<rect x="190" y="114" width="38" height="38" fill="#101010"/>
<rect x="228" y="114" width="38" height="38" fill="#101010"/>
<rect x="266" y="114" width="38" height="38" fill="#101010"/>
<rect x="304" y="114" width="38" height="38" fill="#101010"/>
<rect x="342" y="114" width="38" height="38" fill="#101010"/>
<rect x="380" y="114" width="38" height="38" fill="#101010"/>
<rect x="418" y="114" width="38" height="38" fill="#101010"/>
<rect x="456" y="114" width="38" height="38" fill="#101010"/>
<rect x="494" y="114" width="38" height="38" fill="#101010"/>
<rect x="532" y="114" width="38" height="38" fill="#101010"/>
<rect x="570" y="114" width="38" height="38" fill="#101010"/>
<rect x="608" y="114" width="38" height="38" fill="#101010"/>
<rect x="646" y="114" width="38" height="38" fill="#101010"/>
<rect x="684" y="114" width="38" height="38" fill="#101010"/>
<rect x="722" y="114" width="38" height="38" fill="#101010"/>
<rect x="760" y="114" width="38" height="38" fill="#101010"/>
<rect x="798" y="114" width="38" height="38" fill="#101010"/>
<rect x="836" y="114" width="38" height="38" fill="#101010"/>
<rect x="874" y="114" width="38" height="38" fill="#101010"/>
<rect x="912" y="114" width="38" height="38" fill="#101010"/>
<rect x="950" y="114" width="38" height="38" fill="#101010"/>
<rect x="988" y="114" width="38" height="38" fill="#101010"/>
<rect x="1026" y="114" width="38" height="38" fill="#101010"/>
<rect y="152" width="38" height="38" fill="#101010"/>
<rect x="38" y="152" width="38" height="38" fill="#101010"/>
<rect x="76" y="152" width="38" height="38" fill="#101010"/>
<rect x="114" y="152" width="38" height="38" fill="#101010"/>
<rect x="152" y="152" width="38" height="38" fill="#101010"/>
<rect x="190" y="152" width="38" height="38" fill="#101010"/>
<rect x="228" y="152" width="38" height="38" fill="#101010"/>
<rect x="266" y="152" width="38" height="38" fill="#101010"/>
<rect x="304" y="152" width="38" height="38" fill="#101010"/>
<rect x="342" y="152" width="38" height="38" fill="#101010"/>
<rect x="380" y="152" width="38" height="38" fill="#101010"/>
<rect x="418" y="152" width="38" height="38" fill="#101010"/>
<rect x="456" y="152" width="38" height="38" fill="#101010"/>
<rect x="494" y="152" width="38" height="38" fill="#101010"/>
<rect x="532" y="152" width="38" height="38" fill="#101010"/>
<rect x="570" y="152" width="38" height="38" fill="#101010"/>
<rect x="608" y="152" width="38" height="38" fill="#101010"/>
<rect x="646" y="152" width="38" height="38" fill="#101010"/>
<rect x="684" y="152" width="38" height="38" fill="#101010"/>
<rect x="722" y="152" width="38" height="38" fill="#101010"/>
<rect x="760" y="152" width="38" height="38" fill="#101010"/>
<rect x="798" y="152" width="38" height="38" fill="#101010"/>
<rect x="836" y="152" width="38" height="38" fill="#101010"/>
<rect x="874" y="152" width="38" height="38" fill="#101010"/>
<rect x="912" y="152" width="38" height="38" fill="#101010"/>
<rect x="950" y="152" width="38" height="38" fill="#101010"/>
<rect x="988" y="152" width="38" height="38" fill="#101010"/>
<rect x="1026" y="152" width="38" height="38" fill="#101010"/>
<rect y="190" width="38" height="38" fill="#101010"/>
<rect x="38" y="190" width="38" height="38" fill="#424242"/>
<rect x="76" y="190" width="38" height="38" fill="#424242"/>
<rect x="114" y="190" width="38" height="38" fill="#424242"/>
<rect x="152" y="190" width="38" height="38" fill="#424242"/>
<rect x="190" y="190" width="38" height="38" fill="#424242"/>
<rect x="228" y="190" width="38" height="38" fill="#333333"/>
<rect x="266" y="190" width="38" height="38" fill="#333333"/>
<rect x="304" y="190" width="38" height="38" fill="#333333"/>
<rect x="342" y="190" width="38" height="38" fill="#333333"/>
<rect x="380" y="190" width="38" height="38" fill="#333333"/>
<rect x="418" y="190" width="38" height="38" fill="#333333"/>
<rect x="456" y="190" width="38" height="38" fill="#333333"/>
<rect x="494" y="190" width="38" height="38" fill="#333333"/>
<rect x="532" y="190" width="38" height="38" fill="#333333"/>
<rect x="570" y="190" width="38" height="38" fill="#333333"/>
<rect x="608" y="190" width="38" height="38" fill="#333333"/>
<rect x="646" y="190" width="38" height="38" fill="#333333"/>
<rect x="684" y="190" width="38" height="38" fill="#333333"/>
<rect x="722" y="190" width="38" height="38" fill="#333333"/>
<rect x="760" y="190" width="38" height="38" fill="#333333"/>
<rect x="798" y="190" width="38" height="38" fill="#333333"/>
<rect x="836" y="190" width="38" height="38" fill="#292929"/>
<rect x="874" y="190" width="38" height="38" fill="#292929"/>
<rect x="912" y="190" width="38" height="38" fill="#292929"/>
<rect x="950" y="190" width="38" height="38" fill="#202020"/>
<rect x="988" y="190" width="38" height="38" fill="#101010"/>
<rect x="1026" y="190" width="38" height="38" fill="#101010"/>
<rect y="228" width="38" height="38" fill="#101010"/>
<rect x="38" y="228" width="38" height="38" fill="#424242"/>
<rect x="76" y="228" width="38" height="38" fill="#424242"/>
<rect x="114" y="228" width="38" height="38" fill="#424242"/>
<rect x="152" y="228" width="38" height="38" fill="#424242"/>
<rect x="190" y="228" width="38" height="38" fill="#424242"/>
<rect x="228" y="228" width="38" height="38" fill="#333333"/>
<rect x="266" y="228" width="38" height="38" fill="#333333"/>
<rect x="304" y="228" width="38" height="38" fill="#333333"/>
<rect x="342" y="228" width="38" height="38" fill="#333333"/>
<rect x="380" y="228" width="38" height="38" fill="#333333"/>
<rect x="418" y="228" width="38" height="38" fill="#333333"/>
<rect x="456" y="228" width="38" height="38" fill="#333333"/>
<rect x="494" y="228" width="38" height="38" fill="#333333"/>
<rect x="532" y="228" width="38" height="38" fill="#333333"/>
<rect x="570" y="228" width="38" height="38" fill="#333333"/>
<rect x="608" y="228" width="38" height="38" fill="#333333"/>
<rect x="646" y="228" width="38" height="38" fill="#333333"/>
<rect x="684" y="228" width="38" height="38" fill="#333333"/>
<rect x="722" y="228" width="38" height="38" fill="#333333"/>
<rect x="760" y="228" width="38" height="38" fill="#333333"/>
<rect x="798" y="228" width="38" height="38" fill="#333333"/>
<rect x="836" y="228" width="38" height="38" fill="#292929"/>
<rect x="874" y="228" width="38" height="38" fill="#292929"/>
<rect x="912" y="228" width="38" height="38" fill="#292929"/>
<rect x="950" y="228" width="38" height="38" fill="#202020"/>
<rect x="988" y="228" width="38" height="38" fill="#101010"/>
<rect x="1026" y="228" width="38" height="38" fill="#101010"/>
<rect y="266" width="38" height="38" fill="#101010"/>
<rect x="38" y="266" width="38" height="38" fill="#424242"/>
<rect x="76" y="266" width="38" height="38" fill="#424242"/>
<rect x="114" y="266" width="38" height="38" fill="#424242"/>
<rect x="152" y="266" width="38" height="38" fill="#424242"/>
<rect x="190" y="266" width="38" height="38" fill="#424242"/>
<rect x="228" y="266" width="38" height="38" fill="#333333"/>
<rect x="266" y="266" width="38" height="38" fill="#333333"/>
<rect x="304" y="266" width="38" height="38" fill="#333333"/>
<rect x="342" y="266" width="38" height="38" fill="#333333"/>
<rect x="380" y="266" width="38" height="38" fill="#333333"/>
<rect x="418" y="266" width="38" height="38" fill="#333333"/>
<rect x="456" y="266" width="38" height="38" fill="#333333"/>
<rect x="494" y="266" width="38" height="38" fill="#333333"/>
<rect x="532" y="266" width="38" height="38" fill="#333333"/>
<rect x="570" y="266" width="38" height="38" fill="#333333"/>
<rect x="608" y="266" width="38" height="38" fill="#333333"/>
<rect x="646" y="266" width="38" height="38" fill="#333333"/>
<rect x="684" y="266" width="38" height="38" fill="#333333"/>
<rect x="722" y="266" width="38" height="38" fill="#333333"/>
<rect x="760" y="266" width="38" height="38" fill="#333333"/>
<rect x="798" y="266" width="38" height="38" fill="#333333"/>
<rect x="836" y="266" width="38" height="38" fill="#292929"/>
<rect x="874" y="266" width="38" height="38" fill="#292929"/>
<rect x="912" y="266" width="38" height="38" fill="#292929"/>
<rect x="950" y="266" width="38" height="38" fill="#202020"/>
<rect x="988" y="266" width="38" height="38" fill="#101010"/>
<rect x="1026" y="266" width="38" height="38" fill="#101010"/>
<rect y="304" width="38" height="38" fill="#101010"/>
<rect x="38" y="304" width="38" height="38" fill="#424242"/>
<rect x="76" y="304" width="38" height="38" fill="#424242"/>
<rect x="114" y="304" width="38" height="38" fill="#FEDC6F"/>
<rect x="152" y="304" width="38" height="38" fill="#FEDC6F"/>
<rect x="190" y="304" width="38" height="38" fill="#FEDC6F"/>
<rect x="228" y="304" width="38" height="38" fill="#FEDC6F"/>
<rect x="266" y="304" width="38" height="38" fill="#333333"/>
<rect x="304" y="304" width="38" height="38" fill="#333333"/>
<rect x="342" y="304" width="38" height="38" fill="#333333"/>
<rect x="380" y="304" width="38" height="38" fill="#333333"/>
<rect x="418" y="304" width="38" height="38" fill="#333333"/>
<rect x="456" y="304" width="38" height="38" fill="#333333"/>
<rect x="494" y="304" width="38" height="38" fill="#333333"/>
<rect x="532" y="304" width="38" height="38" fill="#333333"/>
<rect x="570" y="304" width="38" height="38" fill="#333333"/>
<rect x="608" y="304" width="38" height="38" fill="#333333"/>
<rect x="646" y="304" width="38" height="38" fill="#333333"/>
<rect x="684" y="304" width="38" height="38" fill="#333333"/>
<rect x="722" y="304" width="38" height="38" fill="#333333"/>
<rect x="760" y="304" width="38" height="38" fill="#333333"/>
<rect x="798" y="304" width="38" height="38" fill="#333333"/>
<rect x="836" y="304" width="38" height="38" fill="#292929"/>
<rect x="874" y="304" width="38" height="38" fill="#292929"/>
<rect x="912" y="304" width="38" height="38" fill="#292929"/>
<rect x="950" y="304" width="38" height="38" fill="#202020"/>
<rect x="988" y="304" width="38" height="38" fill="#101010"/>
<rect x="1026" y="304" width="38" height="38" fill="#101010"/>
<rect y="342" width="38" height="38" fill="#101010"/>
<rect x="38" y="342" width="38" height="38" fill="#424242"/>
<rect x="76" y="342" width="38" height="38" fill="#424242"/>
<rect x="114" y="342" width="38" height="38" fill="#FEDC6F"/>
<rect x="152" y="342" width="38" height="38" fill="#FEDC6F"/>
<rect x="190" y="342" width="38" height="38" fill="#FEDC6F"/>
<rect x="228" y="342" width="38" height="38" fill="#FEDC6F"/>
<rect x="266" y="342" width="38" height="38" fill="#333333"/>
<rect x="304" y="342" width="38" height="38" fill="#333333"/>
<rect x="342" y="342" width="38" height="38" fill="#333333"/>
<rect x="380" y="342" width="38" height="38" fill="#333333"/>
<rect x="418" y="342" width="38" height="38" fill="#333333"/>
<rect x="456" y="342" width="38" height="38" fill="#333333"/>
<rect x="494" y="342" width="38" height="38" fill="#333333"/>
<rect x="532" y="342" width="38" height="38" fill="#333333"/>
<rect x="570" y="342" width="38" height="38" fill="#333333"/>
<rect x="608" y="342" width="38" height="38" fill="#333333"/>
<rect x="646" y="342" width="38" height="38" fill="#333333"/>
<rect x="684" y="342" width="38" height="38" fill="#333333"/>
<rect x="722" y="342" width="38" height="38" fill="#333333"/>
<rect x="760" y="342" width="38" height="38" fill="#333333"/>
<rect x="798" y="342" width="38" height="38" fill="#333333"/>
<rect x="836" y="342" width="38" height="38" fill="#292929"/>
<rect x="874" y="342" width="38" height="38" fill="#292929"/>
<rect x="912" y="342" width="38" height="38" fill="#292929"/>
<rect x="950" y="342" width="38" height="38" fill="#202020"/>
<rect x="988" y="342" width="38" height="38" fill="#101010"/>
<rect x="1026" y="342" width="38" height="38" fill="#101010"/>
<rect y="380" width="38" height="38" fill="#101010"/>
<rect x="38" y="380" width="38" height="38" fill="#424242"/>
<rect x="76" y="380" width="38" height="38" fill="#424242"/>
<rect x="114" y="380" width="38" height="38" fill="#424242"/>
<rect x="152" y="380" width="38" height="38" fill="#333333"/>
<rect x="190" y="380" width="38" height="38" fill="#333333"/>
<rect x="228" y="380" width="38" height="38" fill="#333333"/>
<rect x="266" y="380" width="38" height="38" fill="#333333"/>
<rect x="304" y="380" width="38" height="38" fill="#333333"/>
<rect x="342" y="380" width="38" height="38" fill="#333333"/>
<rect x="380" y="380" width="38" height="38" fill="#333333"/>
<rect x="418" y="380" width="38" height="38" fill="#333333"/>
<rect x="456" y="380" width="38" height="38" fill="#333333"/>
<rect x="494" y="380" width="38" height="38" fill="#333333"/>
<rect x="532" y="380" width="38" height="38" fill="#333333"/>
<rect x="570" y="380" width="38" height="38" fill="#333333"/>
<rect x="608" y="380" width="38" height="38" fill="#333333"/>
<rect x="646" y="380" width="38" height="38" fill="#333333"/>
<rect x="684" y="380" width="38" height="38" fill="#333333"/>
<rect x="722" y="380" width="38" height="38" fill="#333333"/>
<rect x="760" y="380" width="38" height="38" fill="#333333"/>
<rect x="798" y="380" width="38" height="38" fill="#333333"/>
<rect x="836" y="380" width="38" height="38" fill="#292929"/>
<rect x="874" y="380" width="38" height="38" fill="#292929"/>
<rect x="912" y="380" width="38" height="38" fill="#292929"/>
<rect x="950" y="380" width="38" height="38" fill="#202020"/>
<rect x="988" y="380" width="38" height="38" fill="#101010"/>
<rect x="1026" y="380" width="38" height="38" fill="#101010"/>
<rect y="418" width="38" height="38" fill="#101010"/>
<rect x="38" y="418" width="38" height="38" fill="#424242"/>
<rect x="76" y="418" width="38" height="38" fill="#424242"/>
<rect x="114" y="418" width="38" height="38" fill="#424242"/>
<rect x="152" y="418" width="38" height="38" fill="#FEDC6F"/>
<rect x="190" y="418" width="38" height="38" fill="#FEDC6F"/>
<rect x="228" y="418" width="38" height="38" fill="#FEDC6F"/>
<rect x="266" y="418" width="38" height="38" fill="#FEDC6F"/>
<rect x="304" y="418" width="38" height="38" fill="#FEDC6F"/>
<rect x="342" y="418" width="38" height="38" fill="#333333"/>
<rect x="380" y="418" width="38" height="38" fill="#333333"/>
<rect x="418" y="418" width="38" height="38" fill="#FD6475"/>
<rect x="456" y="418" width="38" height="38" fill="#FD6475"/>
<rect x="494" y="418" width="38" height="38" fill="#FD6475"/>
<rect x="532" y="418" width="38" height="38" fill="#FD6475"/>
<rect x="570" y="418" width="38" height="38" fill="#333333"/>
<rect x="608" y="418" width="38" height="38" fill="#333333"/>
<rect x="646" y="418" width="38" height="38" fill="#333333"/>
<rect x="684" y="418" width="38" height="38" fill="#333333"/>
<rect x="722" y="418" width="38" height="38" fill="#333333"/>
<rect x="760" y="418" width="38" height="38" fill="#333333"/>
<rect x="798" y="418" width="38" height="38" fill="#333333"/>
<rect x="836" y="418" width="38" height="38" fill="#292929"/>
<rect x="874" y="418" width="38" height="38" fill="#292929"/>
<rect x="912" y="418" width="38" height="38" fill="#292929"/>
<rect x="950" y="418" width="38" height="38" fill="#202020"/>
<rect x="988" y="418" width="38" height="38" fill="#101010"/>
<rect x="1026" y="418" width="38" height="38" fill="#101010"/>
<rect y="456" width="38" height="38" fill="#101010"/>
<rect x="38" y="456" width="38" height="38" fill="#424242"/>
<rect x="76" y="456" width="38" height="38" fill="#424242"/>
<rect x="114" y="456" width="38" height="38" fill="#424242"/>
<rect x="152" y="456" width="38" height="38" fill="#FEDC6F"/>
<rect x="190" y="456" width="38" height="38" fill="#FEDC6F"/>
<rect x="228" y="456" width="38" height="38" fill="#FEDC6F"/>
<rect x="266" y="456" width="38" height="38" fill="#FEDC6F"/>
<rect x="304" y="456" width="38" height="38" fill="#FEDC6F"/>
<rect x="342" y="456" width="38" height="38" fill="#333333"/>
<rect x="380" y="456" width="38" height="38" fill="#333333"/>
<rect x="418" y="456" width="38" height="38" fill="#FD6475"/>
<rect x="456" y="456" width="38" height="38" fill="#FD6475"/>
<rect x="494" y="456" width="38" height="38" fill="#FD6475"/>
<rect x="532" y="456" width="38" height="38" fill="#FD6475"/>
<rect x="570" y="456" width="38" height="38" fill="#333333"/>
<rect x="608" y="456" width="38" height="38" fill="#333333"/>
<rect x="646" y="456" width="38" height="38" fill="#333333"/>
<rect x="684" y="456" width="38" height="38" fill="#333333"/>
<rect x="722" y="456" width="38" height="38" fill="#333333"/>
<rect x="760" y="456" width="38" height="38" fill="#333333"/>
<rect x="798" y="456" width="38" height="38" fill="#333333"/>
<rect x="836" y="456" width="38" height="38" fill="#292929"/>
<rect x="874" y="456" width="38" height="38" fill="#292929"/>
<rect x="912" y="456" width="38" height="38" fill="#292929"/>
<rect x="950" y="456" width="38" height="38" fill="#202020"/>
<rect x="988" y="456" width="38" height="38" fill="#101010"/>
<rect x="1026" y="456" width="38" height="38" fill="#101010"/>
<rect y="494" width="38" height="38" fill="#101010"/>
<rect x="38" y="494" width="38" height="38" fill="#424242"/>
<rect x="76" y="494" width="38" height="38" fill="#424242"/>
<rect x="114" y="494" width="38" height="38" fill="#333333"/>
<rect x="152" y="494" width="38" height="38" fill="#333333"/>
<rect x="190" y="494" width="38" height="38" fill="#333333"/>
<rect x="228" y="494" width="38" height="38" fill="#333333"/>
<rect x="266" y="494" width="38" height="38" fill="#333333"/>
<rect x="304" y="494" width="38" height="38" fill="#333333"/>
<rect x="342" y="494" width="38" height="38" fill="#333333"/>
<rect x="380" y="494" width="38" height="38" fill="#333333"/>
<rect x="418" y="494" width="38" height="38" fill="#333333"/>
<rect x="456" y="494" width="38" height="38" fill="#333333"/>
<rect x="494" y="494" width="38" height="38" fill="#333333"/>
<rect x="532" y="494" width="38" height="38" fill="#333333"/>
<rect x="570" y="494" width="38" height="38" fill="#333333"/>
<rect x="608" y="494" width="38" height="38" fill="#333333"/>
<rect x="646" y="494" width="38" height="38" fill="#333333"/>
<rect x="684" y="494" width="38" height="38" fill="#333333"/>
<rect x="722" y="494" width="38" height="38" fill="#333333"/>
<rect x="760" y="494" width="38" height="38" fill="#292929"/>
<rect x="798" y="494" width="38" height="38" fill="#292929"/>
<rect x="836" y="494" width="38" height="38" fill="#292929"/>
<rect x="874" y="494" width="38" height="38" fill="#292929"/>
<rect x="912" y="494" width="38" height="38" fill="#292929"/>
<rect x="950" y="494" width="38" height="38" fill="#202020"/>
<rect x="988" y="494" width="38" height="38" fill="#101010"/>
<rect x="1026" y="494" width="38" height="38" fill="#101010"/>
<rect y="532" width="38" height="38" fill="#101010"/>
<rect x="38" y="532" width="38" height="38" fill="#424242"/>
<rect x="76" y="532" width="38" height="38" fill="#424242"/>
<rect x="114" y="532" width="38" height="38" fill="#333333"/>
<rect x="152" y="532" width="38" height="38" fill="#7BDD8E"/>
<rect x="190" y="532" width="38" height="38" fill="#7BDD8E"/>
<rect x="228" y="532" width="38" height="38" fill="#7BDD8E"/>
<rect x="266" y="532" width="38" height="38" fill="#7BDD8E"/>
<rect x="304" y="532" width="38" height="38" fill="#7BDD8E"/>
<rect x="342" y="532" width="38" height="38" fill="#7BDD8E"/>
<rect x="380" y="532" width="38" height="38" fill="#7BDD8E"/>
<rect x="418" y="532" width="38" height="38" fill="#7BDD8E"/>
<rect x="456" y="532" width="38" height="38" fill="#7BDD8E"/>
<rect x="494" y="532" width="38" height="38" fill="#7BDD8E"/>
<rect x="532" y="532" width="38" height="38" fill="#7BDD8E"/>
<rect x="570" y="532" width="38" height="38" fill="#7BDD8E"/>
<rect x="608" y="532" width="38" height="38" fill="#7BDD8E"/>
<rect x="646" y="532" width="38" height="38" fill="#7BDD8E"/>
<rect x="684" y="532" width="38" height="38" fill="#7BDD8E"/>
<rect x="722" y="532" width="38" height="38" fill="#7BDD8E"/>
<rect x="760" y="532" width="38" height="38" fill="#292929"/>
<rect x="798" y="532" width="38" height="38" fill="#292929"/>
<rect x="836" y="532" width="38" height="38" fill="#292929"/>
<rect x="874" y="532" width="38" height="38" fill="#292929"/>
<rect x="912" y="532" width="38" height="38" fill="#292929"/>
<rect x="950" y="532" width="38" height="38" fill="#202020"/>
<rect x="988" y="532" width="38" height="38" fill="#101010"/>
<rect x="1026" y="532" width="38" height="38" fill="#101010"/>
<rect y="570" width="38" height="38" fill="#101010"/>
<rect x="38" y="570" width="38" height="38" fill="#424242"/>
<rect x="76" y="570" width="38" height="38" fill="#424242"/>
<rect x="114" y="570" width="38" height="38" fill="#333333"/>
<rect x="152" y="570" width="38" height="38" fill="#7BDD8E"/>
<rect x="190" y="570" width="38" height="38" fill="#7BDD8E"/>
<rect x="228" y="570" width="38" height="38" fill="#7BDD8E"/>
<rect x="266" y="570" width="38" height="38" fill="#7BDD8E"/>
<rect x="304" y="570" width="38" height="38" fill="#7BDD8E"/>
<rect x="342" y="570" width="38" height="38" fill="#7BDD8E"/>
<rect x="380" y="570" width="38" height="38" fill="#7BDD8E"/>
<rect x="418" y="570" width="38" height="38" fill="#7BDD8E"/>
<rect x="456" y="570" width="38" height="38" fill="#7BDD8E"/>
<rect x="494" y="570" width="38" height="38" fill="#7BDD8E"/>
<rect x="532" y="570" width="38" height="38" fill="#7BDD8E"/>
<rect x="570" y="570" width="38" height="38" fill="#7BDD8E"/>
<rect x="608" y="570" width="38" height="38" fill="#7BDD8E"/>
<rect x="646" y="570" width="38" height="38" fill="#7BDD8E"/>
<rect x="684" y="570" width="38" height="38" fill="#7BDD8E"/>
<rect x="722" y="570" width="38" height="38" fill="#7BDD8E"/>
<rect x="760" y="570" width="38" height="38" fill="#292929"/>
<rect x="798" y="570" width="38" height="38" fill="#292929"/>
<rect x="836" y="570" width="38" height="38" fill="#292929"/>
<rect x="874" y="570" width="38" height="38" fill="#292929"/>
<rect x="912" y="570" width="38" height="38" fill="#292929"/>
<rect x="950" y="570" width="38" height="38" fill="#202020"/>
<rect x="988" y="570" width="38" height="38" fill="#101010"/>
<rect x="1026" y="570" width="38" height="38" fill="#101010"/>
<rect y="608" width="38" height="38" fill="#101010"/>
<rect x="38" y="608" width="38" height="38" fill="#424242"/>
<rect x="76" y="608" width="38" height="38" fill="#424242"/>
<rect x="114" y="608" width="38" height="38" fill="#333333"/>
<rect x="152" y="608" width="38" height="38" fill="#333333"/>
<rect x="190" y="608" width="38" height="38" fill="#333333"/>
<rect x="228" y="608" width="38" height="38" fill="#333333"/>
<rect x="266" y="608" width="38" height="38" fill="#333333"/>
<rect x="304" y="608" width="38" height="38" fill="#333333"/>
<rect x="342" y="608" width="38" height="38" fill="#333333"/>
<rect x="380" y="608" width="38" height="38" fill="#333333"/>
<rect x="418" y="608" width="38" height="38" fill="#333333"/>
<rect x="456" y="608" width="38" height="38" fill="#333333"/>
<rect x="494" y="608" width="38" height="38" fill="#333333"/>
<rect x="532" y="608" width="38" height="38" fill="#333333"/>
<rect x="570" y="608" width="38" height="38" fill="#333333"/>
<rect x="608" y="608" width="38" height="38" fill="#333333"/>
<rect x="646" y="608" width="38" height="38" fill="#333333"/>
<rect x="684" y="608" width="38" height="38" fill="#333333"/>
<rect x="722" y="608" width="38" height="38" fill="#333333"/>
<rect x="760" y="608" width="38" height="38" fill="#292929"/>
<rect x="798" y="608" width="38" height="38" fill="#292929"/>
<rect x="836" y="608" width="38" height="38" fill="#292929"/>
<rect x="874" y="608" width="38" height="38" fill="#292929"/>
<rect x="912" y="608" width="38" height="38" fill="#292929"/>
<rect x="950" y="608" width="38" height="38" fill="#202020"/>
<rect x="988" y="608" width="38" height="38" fill="#101010"/>
<rect x="1026" y="608" width="38" height="38" fill="#101010"/>
<rect y="646" width="38" height="38" fill="#101010"/>
<rect x="38" y="646" width="38" height="38" fill="#424242"/>
<rect x="76" y="646" width="38" height="38" fill="#424242"/>
<rect x="114" y="646" width="38" height="38" fill="#333333"/>
<rect x="152" y="646" width="38" height="38" fill="#333333"/>
<rect x="190" y="646" width="38" height="38" fill="#333333"/>
<rect x="228" y="646" width="38" height="38" fill="#6EA4F6"/>
<rect x="266" y="646" width="38" height="38" fill="#6EA4F6"/>
<rect x="304" y="646" width="38" height="38" fill="#6EA4F6"/>
<rect x="342" y="646" width="38" height="38" fill="#6EA4F6"/>
<rect x="380" y="646" width="38" height="38" fill="#6EA4F6"/>
<rect x="418" y="646" width="38" height="38" fill="#6EA4F6"/>
<rect x="456" y="646" width="38" height="38" fill="#6EA4F6"/>
<rect x="494" y="646" width="38" height="38" fill="#6EA4F6"/>
<rect x="532" y="646" width="38" height="38" fill="#6EA4F6"/>
<rect x="570" y="646" width="38" height="38" fill="#6EA4F6"/>
<rect x="608" y="646" width="38" height="38" fill="#6EA4F6"/>
<rect x="646" y="646" width="38" height="38" fill="#6EA4F6"/>
<rect x="684" y="646" width="38" height="38" fill="#6EA4F6"/>
<rect x="722" y="646" width="38" height="38" fill="#6EA4F6"/>
<rect x="760" y="646" width="38" height="38" fill="#6EA4F6"/>
<rect x="798" y="646" width="38" height="38" fill="#6EA4F6"/>
<rect x="836" y="646" width="38" height="38" fill="#292929"/>
<rect x="874" y="646" width="38" height="38" fill="#202020"/>
<rect x="912" y="646" width="38" height="38" fill="#202020"/>
<rect x="950" y="646" width="38" height="38" fill="#202020"/>
<rect x="988" y="646" width="38" height="38" fill="#101010"/>
<rect x="1026" y="646" width="38" height="38" fill="#101010"/>
<rect y="684" width="38" height="38" fill="#101010"/>
<rect x="38" y="684" width="38" height="38" fill="#424242"/>
<rect x="76" y="684" width="38" height="38" fill="#424242"/>
<rect x="114" y="684" width="38" height="38" fill="#333333"/>
<rect x="152" y="684" width="38" height="38" fill="#333333"/>
<rect x="190" y="684" width="38" height="38" fill="#333333"/>
<rect x="228" y="684" width="38" height="38" fill="#6EA4F6"/>
<rect x="266" y="684" width="38" height="38" fill="#6EA4F6"/>
<rect x="304" y="684" width="38" height="38" fill="#6EA4F6"/>
<rect x="342" y="684" width="38" height="38" fill="#6EA4F6"/>
<rect x="380" y="684" width="38" height="38" fill="#6EA4F6"/>
<rect x="418" y="684" width="38" height="38" fill="#6EA4F6"/>
<rect x="456" y="684" width="38" height="38" fill="#6EA4F6"/>
<rect x="494" y="684" width="38" height="38" fill="#6EA4F6"/>
<rect x="532" y="684" width="38" height="38" fill="#6EA4F6"/>
<rect x="570" y="684" width="38" height="38" fill="#6EA4F6"/>
<rect x="608" y="684" width="38" height="38" fill="#6EA4F6"/>
<rect x="646" y="684" width="38" height="38" fill="#6EA4F6"/>
<rect x="684" y="684" width="38" height="38" fill="#6EA4F6"/>
<rect x="722" y="684" width="38" height="38" fill="#6EA4F6"/>
<rect x="760" y="684" width="38" height="38" fill="#6EA4F6"/>
<rect x="798" y="684" width="38" height="38" fill="#6EA4F6"/>
<rect x="836" y="684" width="38" height="38" fill="#292929"/>
<rect x="874" y="684" width="38" height="38" fill="#202020"/>
<rect x="912" y="684" width="38" height="38" fill="#202020"/>
<rect x="950" y="684" width="38" height="38" fill="#202020"/>
<rect x="988" y="684" width="38" height="38" fill="#101010"/>
<rect x="1026" y="684" width="38" height="38" fill="#101010"/>
<rect y="722" width="38" height="38" fill="#101010"/>
<rect x="38" y="722" width="38" height="38" fill="#424242"/>
<rect x="76" y="722" width="38" height="38" fill="#424242"/>
<rect x="114" y="722" width="38" height="38" fill="#333333"/>
<rect x="152" y="722" width="38" height="38" fill="#333333"/>
<rect x="190" y="722" width="38" height="38" fill="#333333"/>
<rect x="228" y="722" width="38" height="38" fill="#333333"/>
<rect x="266" y="722" width="38" height="38" fill="#333333"/>
<rect x="304" y="722" width="38" height="38" fill="#333333"/>
<rect x="342" y="722" width="38" height="38" fill="#333333"/>
<rect x="380" y="722" width="38" height="38" fill="#333333"/>
<rect x="418" y="722" width="38" height="38" fill="#333333"/>
<rect x="456" y="722" width="38" height="38" fill="#333333"/>
<rect x="494" y="722" width="38" height="38" fill="#333333"/>
<rect x="532" y="722" width="38" height="38" fill="#333333"/>
<rect x="570" y="722" width="38" height="38" fill="#333333"/>
<rect x="608" y="722" width="38" height="38" fill="#333333"/>
<rect x="646" y="722" width="38" height="38" fill="#333333"/>
<rect x="684" y="722" width="38" height="38" fill="#292929"/>
<rect x="722" y="722" width="38" height="38" fill="#292929"/>
<rect x="760" y="722" width="38" height="38" fill="#292929"/>
<rect x="798" y="722" width="38" height="38" fill="#292929"/>
<rect x="836" y="722" width="38" height="38" fill="#292929"/>
<rect x="874" y="722" width="38" height="38" fill="#202020"/>
<rect x="912" y="722" width="38" height="38" fill="#202020"/>
<rect x="950" y="722" width="38" height="38" fill="#202020"/>
<rect x="988" y="722" width="38" height="38" fill="#101010"/>
<rect x="1026" y="722" width="38" height="38" fill="#101010"/>
<rect y="760" width="38" height="38" fill="#101010"/>
<rect x="38" y="760" width="38" height="38" fill="#424242"/>
<rect x="76" y="760" width="38" height="38" fill="#424242"/>
<rect x="114" y="760" width="38" height="38" fill="#333333"/>
<rect x="152" y="760" width="38" height="38" fill="#333333"/>
<rect x="190" y="760" width="38" height="38" fill="#333333"/>
<rect x="228" y="760" width="38" height="38" fill="#333333"/>
<rect x="266" y="760" width="38" height="38" fill="#333333"/>
<rect x="304" y="760" width="38" height="38" fill="#333333"/>
<rect x="342" y="760" width="38" height="38" fill="#333333"/>
<rect x="380" y="760" width="38" height="38" fill="#333333"/>
<rect x="418" y="760" width="38" height="38" fill="#333333"/>
<rect x="456" y="760" width="38" height="38" fill="#333333"/>
<rect x="494" y="760" width="38" height="38" fill="#333333"/>
<rect x="532" y="760" width="38" height="38" fill="#333333"/>
<rect x="570" y="760" width="38" height="38" fill="#333333"/>
<rect x="608" y="760" width="38" height="38" fill="#333333"/>
<rect x="646" y="760" width="38" height="38" fill="#333333"/>
<rect x="684" y="760" width="38" height="38" fill="#292929"/>
<rect x="722" y="760" width="38" height="38" fill="#292929"/>
<rect x="760" y="760" width="38" height="38" fill="#292929"/>
<rect x="798" y="760" width="38" height="38" fill="#292929"/>
<rect x="836" y="760" width="38" height="38" fill="#292929"/>
<rect x="874" y="760" width="38" height="38" fill="#202020"/>
<rect x="912" y="760" width="38" height="38" fill="#202020"/>
<rect x="950" y="760" width="38" height="38" fill="#202020"/>
<rect x="988" y="760" width="38" height="38" fill="#101010"/>
<rect x="1026" y="760" width="38" height="38" fill="#101010"/>
<rect y="798" width="38" height="38" fill="#101010"/>
<rect x="38" y="798" width="38" height="38" fill="#424242"/>
<rect x="76" y="798" width="38" height="38" fill="#424242"/>
<rect x="114" y="798" width="38" height="38" fill="#333333"/>
<rect x="152" y="798" width="38" height="38" fill="#333333"/>
<rect x="190" y="798" width="38" height="38" fill="#333333"/>
<rect x="228" y="798" width="38" height="38" fill="#FEDC6F"/>
<rect x="266" y="798" width="38" height="38" fill="#FEDC6F"/>
<rect x="304" y="798" width="38" height="38" fill="#FEDC6F"/>
<rect x="342" y="798" width="38" height="38" fill="#FEDC6F"/>
<rect x="380" y="798" width="38" height="38" fill="#FEDC6F"/>
<rect x="418" y="798" width="38" height="38" fill="#333333"/>
<rect x="456" y="798" width="38" height="38" fill="#FD6475"/>
<rect x="494" y="798" width="38" height="38" fill="#FD6475"/>
<rect x="532" y="798" width="38" height="38" fill="#FD6475"/>
<rect x="570" y="798" width="38" height="38" fill="#FD6475"/>
<rect x="608" y="798" width="38" height="38" fill="#FD6475"/>
<rect x="646" y="798" width="38" height="38" fill="#FD6475"/>
<rect x="684" y="798" width="38" height="38" fill="#292929"/>
<rect x="722" y="798" width="38" height="38" fill="#292929"/>
<rect x="760" y="798" width="38" height="38" fill="#292929"/>
<rect x="798" y="798" width="38" height="38" fill="#292929"/>
<rect x="836" y="798" width="38" height="38" fill="#202020"/>
<rect x="874" y="798" width="38" height="38" fill="#202020"/>
<rect x="912" y="798" width="38" height="38" fill="#202020"/>
<rect x="950" y="798" width="38" height="38" fill="#202020"/>
<rect x="988" y="798" width="38" height="38" fill="#101010"/>
<rect x="1026" y="798" width="38" height="38" fill="#101010"/>
<rect y="836" width="38" height="38" fill="#101010"/>
<rect x="38" y="836" width="38" height="38" fill="#424242"/>
<rect x="76" y="836" width="38" height="38" fill="#424242"/>
<rect x="114" y="836" width="38" height="38" fill="#333333"/>
<rect x="152" y="836" width="38" height="38" fill="#333333"/>
<rect x="190" y="836" width="38" height="38" fill="#333333"/>
<rect x="228" y="836" width="38" height="38" fill="#333333"/>
<rect x="266" y="836" width="38" height="38" fill="#333333"/>
<rect x="304" y="836" width="38" height="38" fill="#333333"/>
<rect x="342" y="836" width="38" height="38" fill="#333333"/>
<rect x="380" y="836" width="38" height="38" fill="#333333"/>
<rect x="418" y="836" width="38" height="38" fill="#333333"/>
<rect x="456" y="836" width="38" height="38" fill="#333333"/>
<rect x="494" y="836" width="38" height="38" fill="#333333"/>
<rect x="532" y="836" width="38" height="38" fill="#333333"/>
<rect x="570" y="836" width="38" height="38" fill="#333333"/>
<rect x="608" y="836" width="38" height="38" fill="#333333"/>
<rect x="646" y="836" width="38" height="38" fill="#292929"/>
<rect x="684" y="836" width="38" height="38" fill="#292929"/>
<rect x="722" y="836" width="38" height="38" fill="#292929"/>
<rect x="760" y="836" width="38" height="38" fill="#202020"/>
<rect x="798" y="836" width="38" height="38" fill="#202020"/>
<rect x="836" y="836" width="38" height="38" fill="#202020"/>
<rect x="874" y="836" width="38" height="38" fill="#202020"/>
<rect x="912" y="836" width="38" height="38" fill="#202020"/>
<rect x="950" y="836" width="38" height="38" fill="#202020"/>
<rect x="988" y="836" width="38" height="38" fill="#101010"/>
<rect x="1026" y="836" width="38" height="38" fill="#101010"/>
<rect y="874" width="38" height="38" fill="#101010"/>
<rect x="38" y="874" width="38" height="38" fill="#424242"/>
<rect x="76" y="874" width="38" height="38" fill="#424242"/>
<rect x="114" y="874" width="38" height="38" fill="#333333"/>
<rect x="152" y="874" width="38" height="38" fill="#333333"/>
<rect x="190" y="874" width="38" height="38" fill="#333333"/>
<rect x="228" y="874" width="38" height="38" fill="#333333"/>
<rect x="266" y="874" width="38" height="38" fill="#333333"/>
<rect x="304" y="874" width="38" height="38" fill="#333333"/>
<rect x="342" y="874" width="38" height="38" fill="#333333"/>
<rect x="380" y="874" width="38" height="38" fill="#333333"/>
<rect x="418" y="874" width="38" height="38" fill="#333333"/>
<rect x="456" y="874" width="38" height="38" fill="#333333"/>
<rect x="494" y="874" width="38" height="38" fill="#333333"/>
<rect x="532" y="874" width="38" height="38" fill="#333333"/>
<rect x="570" y="874" width="38" height="38" fill="#333333"/>
<rect x="608" y="874" width="38" height="38" fill="#333333"/>
<rect x="646" y="874" width="38" height="38" fill="#292929"/>
<rect x="684" y="874" width="38" height="38" fill="#292929"/>
<rect x="722" y="874" width="38" height="38" fill="#292929"/>
<rect x="760" y="874" width="38" height="38" fill="#202020"/>
<rect x="798" y="874" width="38" height="38" fill="#202020"/>
<rect x="836" y="874" width="38" height="38" fill="#202020"/>
<rect x="874" y="874" width="38" height="38" fill="#202020"/>
<rect x="912" y="874" width="38" height="38" fill="#202020"/>
<rect x="950" y="874" width="38" height="38" fill="#202020"/>
<rect x="988" y="874" width="38" height="38" fill="#101010"/>
<rect x="1026" y="874" width="38" height="38" fill="#101010"/>
<rect y="912" width="38" height="38" fill="#101010"/>
<rect x="38" y="912" width="38" height="38" fill="#424242"/>
<rect x="76" y="912" width="38" height="38" fill="#424242"/>
<rect x="114" y="912" width="38" height="38" fill="#333333"/>
<rect x="152" y="912" width="38" height="38" fill="#333333"/>
<rect x="190" y="912" width="38" height="38" fill="#333333"/>
<rect x="228" y="912" width="38" height="38" fill="#6EA4F6"/>
<rect x="266" y="912" width="38" height="38" fill="#6EA4F6"/>
<rect x="304" y="912" width="38" height="38" fill="#6EA4F6"/>
<rect x="342" y="912" width="38" height="38" fill="#6EA4F6"/>
<rect x="380" y="912" width="38" height="38" fill="#6EA4F6"/>
<rect x="418" y="912" width="38" height="38" fill="#6EA4F6"/>
<rect x="456" y="912" width="38" height="38" fill="#6EA4F6"/>
<rect x="494" y="912" width="38" height="38" fill="#6EA4F6"/>
<rect x="532" y="912" width="38" height="38" fill="#333333"/>
<rect x="570" y="912" width="38" height="38" fill="#61D8D6"/>
<rect x="608" y="912" width="38" height="38" fill="#61D8D6"/>
<rect x="646" y="912" width="38" height="38" fill="#61D8D6"/>
<rect x="684" y="912" width="38" height="38" fill="#61D8D6"/>
<rect x="722" y="912" width="38" height="38" fill="#61D8D6"/>
<rect x="760" y="912" width="38" height="38" fill="#61D8D6"/>
<rect x="798" y="912" width="38" height="38" fill="#61D8D6"/>
<rect x="836" y="912" width="38" height="38" fill="#61D8D6"/>
<rect x="874" y="912" width="38" height="38" fill="#61D8D6"/>
<rect x="912" y="912" width="38" height="38" fill="#61D8D6"/>
<rect x="950" y="912" width="38" height="38" fill="#202020"/>
<rect x="988" y="912" width="38" height="38" fill="#101010"/>
<rect x="1026" y="912" width="38" height="38" fill="#101010"/>
<rect y="950" width="38" height="38" fill="#101010"/>
<rect x="38" y="950" width="38" height="38" fill="#424242"/>
<rect x="76" y="950" width="38" height="38" fill="#424242"/>
<rect x="114" y="950" width="38" height="38" fill="#333333"/>
<rect x="152" y="950" width="38" height="38" fill="#333333"/>
<rect x="190" y="950" width="38" height="38" fill="#333333"/>
<rect x="228" y="950" width="38" height="38" fill="#333333"/>
<rect x="266" y="950" width="38" height="38" fill="#333333"/>
<rect x="304" y="950" width="38" height="38" fill="#333333"/>
<rect x="342" y="950" width="38" height="38" fill="#333333"/>
<rect x="380" y="950" width="38" height="38" fill="#333333"/>
<rect x="418" y="950" width="38" height="38" fill="#333333"/>
<rect x="456" y="950" width="38" height="38" fill="#333333"/>
<rect x="494" y="950" width="38" height="38" fill="#333333"/>
<rect x="532" y="950" width="38" height="38" fill="#333333"/>
<rect x="570" y="950" width="38" height="38" fill="#292929"/>
<rect x="608" y="950" width="38" height="38" fill="#292929"/>
<rect x="646" y="950" width="38" height="38" fill="#292929"/>
<rect x="684" y="950" width="38" height="38" fill="#202020"/>
<rect x="722" y="950" width="38" height="38" fill="#202020"/>
<rect x="760" y="950" width="38" height="38" fill="#202020"/>
<rect x="798" y="950" width="38" height="38" fill="#202020"/>
<rect x="836" y="950" width="38" height="38" fill="#202020"/>
<rect x="874" y="950" width="38" height="38" fill="#202020"/>
<rect x="912" y="950" width="38" height="38" fill="#202020"/>
<rect x="950" y="950" width="38" height="38" fill="#202020"/>
<rect x="988" y="950" width="38" height="38" fill="#101010"/>
<rect x="1026" y="950" width="38" height="38" fill="#101010"/>
<rect y="988" width="38" height="38" fill="#101010"/>
<rect x="38" y="988" width="38" height="38" fill="#424242"/>
<rect x="76" y="988" width="38" height="38" fill="#424242"/>
<rect x="114" y="988" width="38" height="38" fill="#333333"/>
<rect x="152" y="988" width="38" height="38" fill="#333333"/>
<rect x="190" y="988" width="38" height="38" fill="#333333"/>
<rect x="228" y="988" width="38" height="38" fill="#333333"/>
<rect x="266" y="988" width="38" height="38" fill="#333333"/>
<rect x="304" y="988" width="38" height="38" fill="#333333"/>
<rect x="342" y="988" width="38" height="38" fill="#333333"/>
<rect x="380" y="988" width="38" height="38" fill="#333333"/>
<rect x="418" y="988" width="38" height="38" fill="#333333"/>
<rect x="456" y="988" width="38" height="38" fill="#333333"/>
<rect x="494" y="988" width="38" height="38" fill="#333333"/>
<rect x="532" y="988" width="38" height="38" fill="#333333"/>
<rect x="570" y="988" width="38" height="38" fill="#292929"/>
<rect x="608" y="988" width="38" height="38" fill="#292929"/>
<rect x="646" y="988" width="38" height="38" fill="#292929"/>
<rect x="684" y="988" width="38" height="38" fill="#202020"/>
<rect x="722" y="988" width="38" height="38" fill="#202020"/>
<rect x="760" y="988" width="38" height="38" fill="#202020"/>
<rect x="798" y="988" width="38" height="38" fill="#202020"/>
<rect x="836" y="988" width="38" height="38" fill="#202020"/>
<rect x="874" y="988" width="38" height="38" fill="#202020"/>
<rect x="912" y="988" width="38" height="38" fill="#202020"/>
<rect x="950" y="988" width="38" height="38" fill="#202020"/>
<rect x="988" y="988" width="38" height="38" fill="#101010"/>
<rect x="1026" y="988" width="38" height="38" fill="#101010"/>
<rect x="38" y="1026" width="38" height="38" fill="#101010"/>
<rect x="76" y="1026" width="38" height="38" fill="#101010"/>
<rect x="114" y="1026" width="38" height="38" fill="#101010"/>
<rect x="152" y="1026" width="38" height="38" fill="#101010"/>
<rect x="190" y="1026" width="38" height="38" fill="#101010"/>
<rect x="228" y="1026" width="38" height="38" fill="#101010"/>
<rect x="266" y="1026" width="38" height="38" fill="#101010"/>
<rect x="304" y="1026" width="38" height="38" fill="#101010"/>
<rect x="342" y="1026" width="38" height="38" fill="#101010"/>
<rect x="380" y="1026" width="38" height="38" fill="#101010"/>
<rect x="418" y="1026" width="38" height="38" fill="#101010"/>
<rect x="456" y="1026" width="38" height="38" fill="#101010"/>
<rect x="494" y="1026" width="38" height="38" fill="#101010"/>
<rect x="532" y="1026" width="38" height="38" fill="#101010"/>
<rect x="570" y="1026" width="38" height="38" fill="#101010"/>
<rect x="608" y="1026" width="38" height="38" fill="#101010"/>
<rect x="646" y="1026" width="38" height="38" fill="#101010"/>
<rect x="684" y="1026" width="38" height="38" fill="#101010"/>
<rect x="722" y="1026" width="38" height="38" fill="#101010"/>
<rect x="760" y="1026" width="38" height="38" fill="#101010"/>
<rect x="798" y="1026" width="38" height="38" fill="#101010"/>
<rect x="836" y="1026" width="38" height="38" fill="#101010"/>
<rect x="874" y="1026" width="38" height="38" fill="#101010"/>
<rect x="912" y="1026" width="38" height="38" fill="#101010"/>
<rect x="950" y="1026" width="38" height="38" fill="#101010"/>
</svg>
